<?xml version="1.0" encoding="utf-8"?>
<!-- Generator: Adobe Illustrator 15.1.0, SVG Export Plug-In . SVG Version: 6.00 Build 0)  -->
<!DOCTYPE svg PUBLIC "-//W3C//DTD SVG 1.1//EN" "http://www.w3.org/Graphics/SVG/1.1/DTD/svg11.dtd">
<svg version="1.1" id="Layer_1" xmlns="http://www.w3.org/2000/svg" xmlns:xlink="http://www.w3.org/1999/xlink" x="0px" y="0px"
	 width="1000px" height="800px" viewBox="0 0 1000 800" enable-background="new 0 0 1000 800" xml:space="preserve">
<g>
	<g>
		<path fill-rule="evenodd" clip-rule="evenodd" fill="#ED2636" d="M505.604,166.354c1.597,0,3.192,0,4.79,0
			c17.495,2.18,29.06,14.004,29.015,31.832c-0.034,12.989-6.704,22.37-12.959,31.269c-6.409,9.117-12.742,18.219-18.592,25.634
			c-8.27-14.851-23.338-27.978-29.015-45.071C471.417,187.659,484.701,168.151,505.604,166.354z"/>
		<path fill-rule="evenodd" clip-rule="evenodd" fill="#FFFF00" d="M507.858,268.892c0.239-0.052,0.266,0.11,0.281,0.282
			c3.463,7.743,11.865,12.79,12.396,22.536c0.459,8.457-4.335,14.46-12.113,14.647c-8.274,0.2-14.917-7.346-12.395-17.747
			c0.868-3.574,3.593-6.528,5.634-9.577C503.914,275.668,505.844,272.275,507.858,268.892z"/>
		<path fill-rule="evenodd" clip-rule="evenodd" fill="#07648D" d="M325.037,345.514c0-0.94,0-1.878,0-2.818
			c0.41-2.589,2.027-6.228,3.943-8.731c5.631-7.357,15.918-12.273,25.917-16.339c27.098-11.02,62.223-16.362,96.903-19.154
			c2.477-0.2,8.207-1.018,8.169,1.972c-0.032,2.527-3.834,2.537-6.197,2.816c-8.808,1.04-17.081,2.19-23.662,3.381
			c-21.216,3.834-38.723,7.907-55.213,16.901c-9.174,5.005-23.249,14.696-15.774,27.889c7.212,12.73,29.758,20.019,44.507,24.225
			c13.244,3.778,34.995,7.756,50.424,9.578c2.55,0.301,6.135,0.31,5.916,2.817c-0.231,2.647-5.905,1.901-8.451,1.689
			c-4.162-0.345-7.849-0.639-9.859-0.844c-32.958-3.377-63.593-8.271-89.017-19.156
			C340.859,364.693,328.069,358.061,325.037,345.514z"/>
		<path fill-rule="evenodd" clip-rule="evenodd" fill="#07648D" d="M557.718,298.471c0.194-0.099,0.202-0.266,0.565-0.282
			c5.975-0.275,12.482,0.741,18.873,1.408c29.299,3.061,59.514,8.369,83.382,17.747c10.062,3.953,19.171,8.276,25.353,14.93
			c3.201,3.447,6.597,8.923,4.789,15.494c-0.741,2.694-2.643,5.798-4.507,7.886c-11.539,12.93-38.05,20.288-58.312,24.79
			c-10.519,2.338-22.778,4.507-35.493,6.198c-4.968,0.66-15.03,1.939-18.593,2.254c-2.039,0.18-6.426,0.59-9.578,0.844
			c-2.36,0.19-1.166,0.658-4.789,0.282c-3.2-0.33-3.029-1.104-3.099-1.972c-0.287-3.612,11.164-3.658,13.241-3.943
			c14.742-2.029,31.365-5.157,43.099-8.452c16.71-4.691,37.83-12.212,44.508-24.225c7.698-13.849-8.119-23.926-17.184-28.733
			c-16.301-8.647-33.729-12.403-54.367-16.057c-5.516-0.977-14.707-2.439-22.817-3.381
			C559.339,302.858,552.566,301.064,557.718,298.471z"/>
		<path fill-rule="evenodd" clip-rule="evenodd" fill="#07648D" d="M466.73,318.471c1.853-0.053,4.462-0.485,4.226,2.253
			c-0.215,2.482-8.435,3.51-10.987,4.226c-4.551,1.278-8.168,2.644-11.268,3.943c-6.293,2.64-17.585,7.31-16.62,16.34
			c0.783,7.332,10.186,11.388,16.62,14.085c3.466,1.452,6.726,2.694,11.268,3.943c2.082,0.571,10.753,1.529,10.987,4.225
			c0.321,3.717-7.268,2.19-9.296,1.972c-19.353-2.085-35.172-4.561-49.86-12.112c-5.549-2.853-14.238-8.544-10.986-16.62
			c3.532-8.772,17.881-13.307,27.888-16.057C441.15,321.247,453.532,318.847,466.73,318.471z"/>
		<path fill-rule="evenodd" clip-rule="evenodd" fill="#07648D" d="M547.015,318.471c0.122-0.05-0.022-0.28,0.281-0.282
			c6.473-0.037,12.932,1.315,19.156,2.254c11.677,1.761,24.122,4.345,33.803,8.45c5.009,2.124,9.905,4.73,12.958,8.17
			c3.258,3.67,3.643,10.057,0,14.086c-6.13,6.776-19.402,11.044-30.705,13.802c-5.633,1.375-11.977,2.438-18.874,3.381
			c-2.394,0.327-9.03,1.041-9.859,1.126c-2.573,0.263-8.128,1.347-8.45-1.407c-0.368-3.146,7.489-3.798,10.985-4.789
			c4.891-1.388,7.614-2.323,11.551-3.943c6.527-2.69,16.142-7.147,16.338-14.931c0.216-8.59-10.285-12.726-16.056-15.212
			c-4.49-1.934-11.567-4.099-17.749-5.634c-2.727-0.677-4.834-1.181-5.069-2.535C545.013,319.217,545.913,318.914,547.015,318.471z"
			/>
		<path fill-rule="evenodd" clip-rule="evenodd" fill="#FFFF00" d="M505.887,329.457c20.532-3.104,22.839,27.675,3.942,29.577
			c-17.883,1.801-21.024-21.214-9.577-27.887C501.714,330.295,503.685,329.79,505.887,329.457z"/>
		<path fill-rule="evenodd" clip-rule="evenodd" fill="#FFFF00" d="M508.422,419.036c-2.69-2.855-4.783-6.34-7.043-9.858
			c-2.121-3.303-5.064-6.846-5.634-10.987c-1.993-14.48,14.162-21.434,21.973-11.831
			C526.593,397.271,512.784,410.938,508.422,419.036z"/>
		<path fill-rule="evenodd" clip-rule="evenodd" fill="#ED2636" d="M510.675,521.855c-1.69,0-3.381,0-5.07,0
			c-20.029-1.986-34.476-20.436-26.761-43.663c2.856-8.596,8.664-16.05,13.804-23.381c5.367-7.656,10.697-15.151,15.493-21.69
			c8.734,14.506,23.053,27.403,29.015,45.354C544.681,501.133,530.856,520.058,510.675,521.855z"/>
	</g>
	<g>
		<g>
			<path fill="#07648D" d="M395.928,526.045c0.354-1.134,0.721-2.262,1.099-3.388c1.018,0.618,2.035,1.224,3.048,1.819
				c1.457-4.369,3.085-8.678,4.88-12.913c-0.987-0.631-1.977-1.273-2.967-1.928c0.466-1.089,0.943-2.173,1.431-3.251
				c3.807,2.568,7.592,4.958,11.353,7.186c0.066,4.618,0.301,9.22,0.694,13.792c2.982-2.813,6.036-5.573,9.146-8.288
				c3.787,1.994,7.547,3.837,11.282,5.541c-0.389,1.014-0.769,2.03-1.14,3.05c-0.954-0.427-1.911-0.863-2.869-1.308
				c-1.492,4.013-2.848,8.07-4.069,12.163c0.989,0.425,1.976,0.84,2.962,1.249c-0.305,1.038-0.601,2.079-0.888,3.122
				c-3.861-1.563-7.742-3.249-11.645-5.067c0.312-1.068,0.633-2.134,0.965-3.197c0.93,0.443,1.859,0.878,2.788,1.306
				c1.273-4.142,2.691-8.241,4.249-12.29c-0.177-0.088-0.353-0.177-0.53-0.266c-4.274,3.928-8.435,7.941-12.434,12.07
				c-0.84-0.414-1.681-0.834-2.523-1.262c-0.838-6.59-1.368-13.255-1.553-19.967c-0.18-0.109-0.36-0.22-0.541-0.33
				c-1.755,4.196-3.348,8.462-4.774,12.785c1.024,0.575,2.045,1.143,3.065,1.699c-0.358,1.096-0.705,2.193-1.041,3.293
				C402.601,529.897,399.271,528.025,395.928,526.045z"/>
			<path fill="#07648D" d="M431.577,543.567c0.284-1.039,0.576-2.077,0.876-3.113c1.154,0.468,2.305,0.925,3.456,1.37
				c1.145-4.034,2.416-8.039,3.81-12.007c-1.112-0.466-2.227-0.943-3.344-1.434c0.367-1.018,0.742-2.032,1.125-3.044
				c4.12,1.841,8.207,3.517,12.265,5.045c-0.34,0.998-0.673,1.997-0.999,2.998c-1.112-0.41-2.225-0.832-3.341-1.264
				c-1.32,3.939-2.525,7.909-3.613,11.904c1.155,0.413,2.308,0.814,3.458,1.207c-0.269,1.015-0.53,2.029-0.784,3.046
				C440.208,546.849,435.906,545.284,431.577,543.567z"/>
			<path fill="#07648D" d="M446.084,548.804c0.25-1.015,0.508-2.027,0.772-3.038c1.004,0.334,2.005,0.661,3.007,0.979
				c1.007-3.945,2.12-7.873,3.336-11.775c-0.965-0.335-1.933-0.676-2.901-1.026c0.32-0.999,0.648-1.998,0.983-2.993
				c3.011,1.109,6.007,2.139,8.988,3.093c1.498,4.479,3.178,8.89,5.015,13.222c0.623-2.651,1.284-5.299,1.986-7.939
				c-0.927-0.254-1.854-0.514-2.783-0.781c0.271-0.985,0.548-1.969,0.83-2.95c3.167,0.932,6.318,1.782,9.458,2.558
				c-0.246,0.973-0.487,1.947-0.723,2.922c-0.992-0.24-1.985-0.486-2.98-0.741c-1.225,4.85-2.325,9.715-3.299,14.591
				c-1.656-0.376-3.315-0.771-4.977-1.185c-2.3-5.141-4.398-10.401-6.248-15.764c-0.969,3.322-1.866,6.659-2.69,10.007
				c0.938,0.28,1.875,0.556,2.81,0.824c-0.239,0.997-0.471,1.994-0.698,2.993C452.689,550.879,449.394,549.883,446.084,548.804z"/>
			<path fill="#07648D" d="M472.133,555.739c0.186-0.978,0.375-1.954,0.571-2.931c1.114,0.237,2.227,0.468,3.339,0.688
				c0.728-3.81,1.521-7.616,2.382-11.417c-1.07-0.235-2.141-0.479-3.213-0.732c0.232-0.973,0.468-1.946,0.708-2.917
				c3.312,0.799,6.611,1.514,9.898,2.149c2.075,0.401,3.722,0.799,4.947,1.221c1.226,0.422,2.352,1.073,3.389,1.956
				c1.038,0.883,1.815,1.96,2.338,3.24s0.684,2.638,0.474,4.082c-0.17,1.17-0.58,2.255-1.238,3.258
				c-0.659,1.002-1.413,1.785-2.263,2.344c-0.851,0.56-1.834,0.965-2.952,1.212s-2.133,0.364-3.041,0.352
				c-0.908-0.013-2.297-0.154-4.169-0.453C479.594,557.198,475.871,556.517,472.133,555.739z M481.739,554.557
				c0.457,0.079,0.913,0.157,1.37,0.234c1.657,0.277,2.999,0.313,4.019,0.123c1.021-0.188,1.89-0.664,2.605-1.423
				c0.716-0.759,1.179-1.816,1.402-3.174c0.212-1.291,0.107-2.431-0.308-3.423c-0.417-0.992-1.077-1.739-1.986-2.247
				c-0.91-0.509-2.113-0.897-3.617-1.18c-0.439-0.082-0.877-0.167-1.317-0.252C483.126,546.994,482.404,550.773,481.739,554.557z"/>
			<path fill="#07648D" d="M498.315,559.702c0.118-0.944,0.237-1.89,0.359-2.834c1.036,0.104,2.071,0.2,3.107,0.288
				c0.442-3.686,0.913-7.374,1.412-11.064c-0.997-0.104-1.993-0.214-2.991-0.332c0.137-0.945,0.278-1.892,0.421-2.837
				c6.167,0.76,12.317,1.249,18.471,1.463c-0.13,1.68-0.259,3.36-0.387,5.041c-1.341-0.035-2.682-0.083-4.022-0.145
				c0.069-0.764,0.139-1.528,0.209-2.293c-2.089-0.103-4.178-0.235-6.268-0.4c-0.147,1.28-0.292,2.562-0.434,3.841
				c1.527,0.11,3.052,0.204,4.579,0.282c-0.09,0.929-0.177,1.856-0.264,2.785c-1.541-0.072-3.081-0.16-4.623-0.265
				c-0.156,1.446-0.312,2.893-0.462,4.339c1.111,0.068,2.222,0.128,3.331,0.179c-0.087,0.93-0.176,1.858-0.263,2.788
				C506.442,560.367,502.383,560.089,498.315,559.702z"/>
			<path fill="#07648D" d="M519.737,547.171c0.066-0.919,0.135-1.839,0.202-2.759c3.281,0.101,6.565,0.121,9.854,0.058
				c-0.033,0.905-0.065,1.81-0.101,2.715c-0.685,0.016-1.37,0.028-2.055,0.037c-0.109,2.431-0.223,4.861-0.341,7.293
				c-0.047,0.975-0.027,1.675,0.061,2.102c0.086,0.426,0.354,0.771,0.807,1.034c0.452,0.264,1.037,0.38,1.751,0.351
				c0.735-0.03,1.35-0.19,1.846-0.476c0.496-0.286,0.82-0.629,0.973-1.027c0.152-0.4,0.249-1.201,0.287-2.405
				c0.073-2.343,0.14-4.683,0.199-7.022c-0.677,0.028-1.352,0.053-2.027,0.073c0.03-0.903,0.058-1.805,0.085-2.707
				c2.742-0.073,5.489-0.204,8.238-0.396c0.001,0.888,0,1.778-0.004,2.668c-0.851,0.063-1.702,0.121-2.554,0.173
				c-0.032,2.646-0.077,5.299-0.135,7.953c-0.022,1.082-0.119,1.877-0.287,2.38c-0.168,0.505-0.536,1.02-1.111,1.545
				c-0.575,0.524-1.401,0.974-2.479,1.34c-1.077,0.367-2.312,0.585-3.697,0.644c-1.605,0.067-2.966-0.059-4.077-0.371
				c-1.111-0.311-1.924-0.749-2.44-1.305c-0.515-0.555-0.831-1.11-0.949-1.664c-0.12-0.553-0.136-1.496-0.048-2.829
				c0.159-2.452,0.317-4.902,0.476-7.354C521.385,547.208,520.561,547.192,519.737,547.171z"/>
			<path fill="#07648D" d="M540.719,559.751c0.018-0.894,0.031-1.786,0.046-2.679c1.027-0.097,2.056-0.201,3.083-0.314
				c0.025-3.482,0.019-6.956-0.021-10.419c-0.997,0.097-1.994,0.187-2.992,0.268c-0.001-0.89-0.005-1.776-0.008-2.663
				c3.792-0.293,7.593-0.703,11.4-1.241c0.038,0.869,0.074,1.739,0.109,2.609c-1.021,0.147-2.04,0.287-3.06,0.417
				c0.099,3.431,0.16,6.876,0.182,10.334c2.124-0.295,4.247-0.624,6.369-0.99c-0.034-1.603-0.077-3.201-0.132-4.796
				c1.384-0.232,2.768-0.483,4.15-0.749c0.109,2.453,0.192,4.916,0.249,7.391C553.646,558.191,547.185,559.125,540.719,559.751z"/>
			<path fill="#07648D" d="M561.31,556.675c-0.022-0.874-0.047-1.747-0.076-2.616c0.961-0.194,1.92-0.397,2.88-0.608
				c-0.133-3.401-0.321-6.779-0.563-10.133c-0.938,0.198-1.874,0.39-2.81,0.57c-0.056-0.858-0.114-1.717-0.177-2.573
				c2.92-0.56,5.842-1.2,8.767-1.928c2.868,2.479,5.75,4.882,8.615,7.232c-0.181-2.296-0.396-4.574-0.641-6.835
				c-0.912,0.277-1.824,0.545-2.736,0.804c-0.085-0.842-0.176-1.683-0.27-2.521c3.124-0.885,6.251-1.872,9.373-2.971
				c0.113,0.828,0.222,1.659,0.325,2.494c-0.98,0.346-1.963,0.681-2.945,1.005c0.489,4.151,0.864,8.37,1.123,12.649
				c-1.598,0.528-3.197,1.031-4.799,1.51c-3.3-2.861-6.638-5.785-9.962-8.809c0.221,2.853,0.399,5.727,0.534,8.62
				c0.902-0.219,1.805-0.444,2.707-0.677c0.045,0.863,0.086,1.729,0.122,2.595C567.625,555.301,564.47,556.029,561.31,556.675z"/>
			<path fill="#07648D" d="M586.663,549.583c-0.059-0.862-0.123-1.72-0.189-2.577c0.855-0.309,1.709-0.626,2.563-0.95
				c-0.279-3.354-0.637-6.665-1.07-9.924c-0.839,0.322-1.679,0.634-2.52,0.94c-0.104-0.834-0.217-1.663-0.333-2.491
				c6.135-2.229,12.256-4.896,18.32-8.071c0.273,1.539,0.527,3.095,0.761,4.664c-1.326,0.688-2.655,1.352-3.986,1.993
				c-0.104-0.732-0.214-1.461-0.326-2.188c-2.15,1.04-4.306,2.021-6.465,2.943c0.163,1.134,0.316,2.272,0.46,3.419
				c1.754-0.747,3.506-1.53,5.253-2.351c0.112,0.839,0.22,1.682,0.32,2.528c-1.754,0.819-3.512,1.604-5.273,2.35
				c0.146,1.315,0.28,2.636,0.401,3.967c2.195-0.925,4.385-1.901,6.565-2.935c-0.075-0.76-0.156-1.518-0.24-2.272
				c1.343-0.64,2.683-1.299,4.019-1.981c0.189,1.61,0.357,3.235,0.505,4.875C599.23,544.641,592.964,547.311,586.663,549.583z"/>
			<path fill="#07648D" d="M607.985,540.207c-0.163-1.759-0.351-3.501-0.561-5.228c1.182-0.631,2.359-1.279,3.535-1.946
				c0.159,0.927,0.581,1.441,1.271,1.529c0.689,0.089,1.443-0.104,2.259-0.587c0.637-0.377,1.154-0.867,1.551-1.463
				c0.397-0.597,0.568-1.12,0.513-1.563c-0.06-0.475-0.322-0.739-0.791-0.797c-0.466-0.059-1.292,0.056-2.479,0.322
				c-2.509,0.573-4.242,0.729-5.192,0.563c-0.951-0.17-1.503-0.803-1.673-1.877c-0.203-1.298,0.191-2.593,1.191-3.929
				c0.998-1.335,2.204-2.423,3.623-3.283c1.625-0.984,2.966-1.331,4.025-0.986c-0.076-0.409-0.155-0.817-0.234-1.224
				c1.144-0.74,2.284-1.502,3.42-2.284c0.298,1.495,0.578,3.008,0.837,4.538c-1.144,0.773-2.291,1.526-3.443,2.262
				c-0.225-0.636-0.648-0.967-1.268-0.999c-0.62-0.033-1.299,0.179-2.034,0.629c-0.568,0.347-1.032,0.746-1.388,1.199
				c-0.356,0.454-0.504,0.856-0.445,1.213c0.051,0.306,0.262,0.5,0.631,0.584c0.37,0.082,1.386-0.085,3.044-0.548
				c1.593-0.44,2.822-0.738,3.692-0.859c0.869-0.12,1.585-0.017,2.148,0.323c0.563,0.338,0.906,0.938,1.02,1.805
				c0.202,1.539-0.252,3.107-1.351,4.652s-2.468,2.813-4.101,3.786c-1.822,1.085-3.282,1.371-4.377,0.922
				c0.045,0.439,0.09,0.881,0.132,1.322C610.359,538.941,609.174,539.582,607.985,540.207z"/>
			<path fill="#07648D" d="M624.197,530.466c-0.193-1.813-0.413-3.606-0.659-5.378c1.147-0.804,2.291-1.627,3.431-2.471
				c0.176,0.951,0.6,1.439,1.279,1.448c0.677,0.01,1.41-0.28,2.2-0.887c0.612-0.472,1.108-1.047,1.484-1.724
				c0.374-0.676,0.53-1.25,0.467-1.712c-0.069-0.493-0.335-0.739-0.791-0.745c-0.46-0.003-1.264,0.218-2.422,0.646
				c-2.443,0.913-4.146,1.298-5.085,1.246c-0.94-0.054-1.5-0.641-1.695-1.738c-0.233-1.324,0.121-2.728,1.07-4.261
				c0.948-1.534,2.103-2.843,3.476-3.945c1.568-1.261,2.876-1.816,3.924-1.596c-0.086-0.423-0.175-0.843-0.265-1.263
				c1.101-0.942,2.193-1.908,3.28-2.896c0.336,1.553,0.653,3.126,0.948,4.721c-1.096,0.971-2.197,1.919-3.305,2.846
				c-0.238-0.644-0.663-0.937-1.27-0.889c-0.61,0.049-1.269,0.362-1.979,0.937c-0.55,0.442-0.994,0.925-1.33,1.448
				c-0.338,0.524-0.473,0.967-0.405,1.332c0.058,0.315,0.27,0.492,0.635,0.531c0.366,0.037,1.359-0.271,2.972-0.975
				c1.551-0.672,2.745-1.141,3.591-1.379c0.846-0.237,1.549-0.219,2.106,0.075c0.558,0.291,0.905,0.889,1.037,1.798
				c0.232,1.611-0.173,3.331-1.21,5.094c-1.039,1.764-2.35,3.259-3.924,4.47c-1.761,1.351-3.183,1.817-4.264,1.475
				c0.053,0.455,0.105,0.911,0.155,1.369C626.503,528.87,625.353,529.678,624.197,530.466z"/>
		</g>
	</g>
</g>
</svg>
