<?xml version="1.0" encoding="utf-8"?>
<!-- Generator: Adobe Illustrator 15.1.0, SVG Export Plug-In . SVG Version: 6.00 Build 0)  -->
<!DOCTYPE svg PUBLIC "-//W3C//DTD SVG 1.1//EN" "http://www.w3.org/Graphics/SVG/1.1/DTD/svg11.dtd">
<svg version="1.1" id="Layer_1" xmlns="http://www.w3.org/2000/svg" xmlns:xlink="http://www.w3.org/1999/xlink" x="0px" y="0px"
	 width="1000px" height="800px" viewBox="0 0 1000 800" enable-background="new 0 0 1000 800" xml:space="preserve">
<path fill-rule="evenodd" clip-rule="evenodd" fill="#07648D" d="M776.085,367.635c-7.498-0.404-6.929-9.881-8.711-17.422
	c-1.514-6.406-3.397-13.673-4.978-20.533c-5.252-22.812-19.915-60.62,6.845-68.443c14.331-4.189,9.955,28.998,9.955,42.31
	c0,15.704-0.603,33.245-0.622,44.177C778.563,354.283,781.12,364.295,776.085,367.635z"/>
<path fill-rule="evenodd" clip-rule="evenodd" fill="#FFFF00" d="M738.131,292.348c11.335-3.4,14.666,23.418,17.422,34.221
	c1.67,6.548,3.552,12.875,4.978,19.289c1.569,7.065,4.295,15.151,3.733,20.533c-0.592,5.665-5.705,10.199-8.711,9.956
	c-6.118-0.496-11.896-20.822-14.934-29.866c-3.362-10.016-9.736-25.03-10.577-34.221
	C729.184,302.869,732.769,293.957,738.131,292.348z"/>
<path fill-rule="evenodd" clip-rule="evenodd" fill="#00FF00" d="M720.087,325.947c8.385-2.522,12.615,12.458,16.8,21.155
	c4.883,10.148,8.959,18.478,9.955,27.377c0.958,8.568-1.294,15.774-5.6,15.555c-4.306-0.219-13.371-21.529-15.556-25.511
	c-5.224-9.521-11.792-18.681-11.199-29.244C714.755,330.498,717.426,326.748,720.087,325.947z"/>
<g>
	<path fill-rule="evenodd" clip-rule="evenodd" fill="#FFFFFF" d="M496.715,136.797c-10.619,4.138-26.011-0.222-39.199,1.867
		c-5.508,0.872-10.759,3.649-16.177,4.355c-6.42,0.836-12.873-0.389-18.667,0c-20.441,1.371-33.912,9.723-46.043,19.911
		c-19.35,0.863-28.299,11.194-40.443,24.266c-8.654,9.315-20.918,16.567-26.133,25.511c-3.681,6.313-14.545,26.48-14.933,34.843
		c-0.207,4.454,1.039,7.562,3.111,11.2c-9.183,14.762,2.923,32.29,11.2,41.066c5.218,26.929,28.434,35.861,54.754,41.688
		c2.188,4.371,6.269,5.876,8.089,9.956c1.7,3.81,0.369,8.918,1.867,13.688c2.262,7.202,12.435,12.436,19.288,17.421
		c8.363,6.084,15.439,10.016,23.644,13.066c19.617,7.294,43.902,5.155,64.709,1.245c4.429,4.509,5.995,9.539,9.955,14.311
		c3.617,4.357,8.783,7.284,12.444,11.822c3.715,4.604,6.891,12.177,10.577,18.666c3.578,6.297,7.138,12.984,9.955,18.666
		c5.877,11.849,11.872,30.71,31.11,23.021c3.603-11.949-5.36-20.852-6.844-31.732c34.668,6.755,78.061,4.38,93.331-20.533
		c1.394-2.274,1.562-6.139,3.11-9.333c2.566-5.293,7.331-9.771,4.355-19.288c31.708,0.119,47.525-17.771,52.266-47.288
		c3.53-21.987,2.797-52.151-5.6-72.176c-1.627-3.879-5.035-6.912-6.845-10.578c-5.482-11.104-7.646-23.32-18.666-28.621
		c-2.011-21.426-13.178-33.695-28.621-41.688c-11.076-25.714-35.187-41.304-65.954-49.776c-9.98-2.749-20.05-7.225-29.866-8.089
		c-4.361-0.384-8.852,0.639-13.066,0c-7.631-1.157-16.231-7.72-24.266-7.466c104.322,0,208.647,0,312.97,0
		c0,166.333,0,332.681,0,499.009c-59.318,0-118.634,0-177.951,0c3.879-1.127,11.9-1.246,16.178-3.733
		c6.391-3.715,9.492-14.064,13.066-23.644c9.912-26.568,23.834-47.436,45.421-63.465c28.882-21.447,61.372-34.679,77.153-68.442
		c7.175-15.352,12.504-35.955,16.799-55.999c4.26-19.875,8.177-41.78,8.711-64.087c0.77-32.084-1.408-72.581-4.978-103.908
		c-1.148-10.081-1.907-24.047-11.199-24.889c-17.188-1.557-19.328,24.024-20.533,41.688c-1.396,20.481,0.622,44.696,0.622,64.709
		c0,10.836-2.868,22.039-1.866,31.11c1.204,10.904,9.335,15.123,8.711,27.999c-0.743,15.336-10.161,28.263-18.044,37.954
		c-8.992,11.057-16.639,18.285-29.244,26.133c-0.243-3.372,3.47-5.246,5.601-7.466c11.923-12.429,25.812-26.366,31.732-46.044
		c2.539-8.439,3.378-19.947-3.733-23.644c-14.071-7.313-32.625,12.773-40.443,22.399c-20.176,24.84-38.191,48.822-65.954,64.709
		c-20.133,11.521-49.72,15.604-60.976,37.333c-6.72,12.971-5.458,33.623-11.2,51.643c-2.339,7.341-6.652,14.193-10.577,20.533
		c-3.87,6.251-10.726,14.19-10.578,20.532c0.211,9.029,12.799,21.603,20.533,27.377c8.771,6.55,19.935,9.484,29.866,11.2
		c-79.227,0-158.457,0-237.683,0c17.587-2.477,29.672-9.535,39.821-20.533c4.604-4.988,10.454-12.718,10.578-18.044
		c0.139-5.957-6.662-14.207-10.578-20.532c-3.961-6.398-7.387-12.631-9.955-20.533c-6.724-20.684-4.834-40.73-13.688-54.754
		c-11.466-18.159-40.696-23.967-58.487-34.222c-13.261-7.644-25.187-17.098-36.71-28.621
		c-10.189-10.189-18.817-23.269-29.244-36.088c-7.362-9.052-26.36-28.926-40.443-22.399c-6.396,2.964-7.219,12.971-4.978,21.777
		c4.964,19.503,21.301,35.999,34.221,49.776c1.476,1.573,4.484,3.111,3.733,5.6c-11.871-7.286-21.377-15.814-31.11-28.621
		c-7.386-9.719-19.166-24.734-16.177-42.932c1.061-6.462,7.932-13.667,8.711-19.911c1.126-9.024-1.867-20.471-1.867-32.354
		c0-20.093,2.089-44.799,0.622-65.954c-1.104-15.927-3.792-40.549-19.911-39.821c-14.342,0.648-13.177,34.6-14.311,49.777
		c-1.582,21.169-1.17,41.32-2.489,60.976c0-67.199,0-134.396,0-201.595C298.44,136.797,397.574,136.797,496.715,136.797z
		 M253.433,350.835c1.559-6.653,3.371-14.177,4.978-21.155c3.424-14.87,9.419-29.679,9.333-42.932
		c-0.069-10.777-7.8-27.008-18.666-26.133c-8.887,0.716-7.466,12.59-7.466,23.644c0,20.583,0.652,47.546,0.622,64.087
		c-0.013,7.021-2.594,15.516,2.489,19.289C252.309,366.857,251.864,357.53,253.433,350.835z M778.574,347.725
		c0.02-10.932,0.622-28.473,0.622-44.177c0-13.312,4.376-46.5-9.955-42.31c-26.76,7.823-12.097,45.631-6.845,68.443
		c1.58,6.86,3.464,14.126,4.978,20.533c1.782,7.541,1.213,17.018,8.711,17.422C781.12,364.295,778.563,354.283,778.574,347.725z
		 M268.988,312.881c-1.514,5.542-3.486,11.233-4.978,17.422c-2.204,9.143-8.864,29.271-7.466,37.333
		c0.61,3.521,5.332,9.369,9.333,8.711c5.678-0.935,11.467-22.224,14.311-30.488c4.894-14.222,9.756-23.621,10.578-34.221
		c0.703-9.081-3.912-22.684-13.066-19.289C272.16,294.402,270.906,305.859,268.988,312.881z M730.042,312.259
		c0.841,9.191,7.215,24.205,10.577,34.221c3.037,9.044,8.815,29.371,14.934,29.866c3.006,0.243,8.119-4.291,8.711-9.956
		c0.562-5.382-2.164-13.468-3.733-20.533c-1.426-6.414-3.308-12.741-4.978-19.289c-2.756-10.803-6.087-37.622-17.422-34.221
		C732.769,293.957,729.184,302.869,730.042,312.259z M290.765,331.547c-5.802,9.66-15.456,30.438-16.8,43.554
		c-0.833,8.128,1.028,15.723,6.222,14.933c2.756-0.419,4.874-7.794,7.466-12.444c6.604-11.845,19.48-28.007,18.667-42.31
		c-0.332-5.828-4.248-11.209-9.956-9.333C294.592,326.53,291.928,329.611,290.765,331.547z M714.487,335.28
		c-0.593,10.563,5.976,19.722,11.199,29.244c2.185,3.982,11.25,25.292,15.556,25.511c4.306,0.219,6.558-6.987,5.6-15.555
		c-0.996-8.899-5.072-17.229-9.955-27.377c-4.185-8.697-8.415-23.677-16.8-21.155C717.426,326.748,714.755,330.498,714.487,335.28z"
		/>
	<path fill-rule="evenodd" clip-rule="evenodd" fill="#07648D" d="M496.715,136.797c4.148,0,8.296,0,12.444,0
		c8.034-0.253,16.635,6.309,24.266,7.466c4.215,0.639,8.705-0.384,13.066,0c9.816,0.864,19.886,5.34,29.866,8.089
		c30.768,8.472,54.878,24.063,65.954,49.776c15.443,7.993,26.61,20.262,28.621,41.688c11.021,5.301,13.184,17.517,18.666,28.621
		c1.81,3.666,5.218,6.698,6.845,10.578c8.396,20.024,9.13,50.189,5.6,72.176c-4.74,29.517-20.558,47.407-52.266,47.288
		c2.976,9.518-1.789,13.995-4.355,19.288c-1.549,3.194-1.717,7.059-3.11,9.333c-15.271,24.913-58.663,27.288-93.331,20.533
		c1.483,10.881,10.446,19.783,6.844,31.732c-19.238,7.688-25.233-11.173-31.11-23.021c-2.817-5.682-6.377-12.369-9.955-18.666
		c-3.687-6.489-6.862-14.062-10.577-18.666c-3.661-4.538-8.827-7.465-12.444-11.822c-3.96-4.771-5.526-9.802-9.955-14.311
		c-20.808,3.91-45.093,6.05-64.709-1.245c-8.205-3.051-15.281-6.982-23.644-13.066c-6.854-4.986-17.026-10.219-19.288-17.421
		c-1.498-4.771-0.167-9.878-1.867-13.688c-1.82-4.08-5.901-5.585-8.089-9.956c-26.32-5.827-49.536-14.759-54.754-41.688
		c-8.277-8.776-20.382-26.304-11.2-41.066c-2.072-3.638-3.317-6.746-3.111-11.2c0.387-8.363,11.251-28.53,14.933-34.843
		c5.214-8.943,17.479-16.195,26.133-25.511c12.145-13.071,21.094-23.403,40.443-24.266c12.131-10.188,25.602-18.54,46.043-19.911
		c5.794-0.389,12.246,0.836,18.667,0c5.418-0.706,10.669-3.483,16.177-4.355C470.704,136.575,486.096,140.935,496.715,136.797z"/>
	<path fill-rule="evenodd" clip-rule="evenodd" fill="#ED2636" d="M391.563,635.806c-4.978,0-9.956,0-14.933,0
		c-19.571,0.029-23.702-10.856-29.866-27.377c-10.143-27.184-23.408-47.581-44.799-63.465
		c-28.456-21.131-61.034-34.166-77.154-67.82c-7.365-15.378-11.921-34.862-16.177-53.51c-4.352-19.065-7.068-39.451-9.333-60.354
		c0-8.296,0-16.592,0-24.888c1.319-19.656,0.907-39.807,2.489-60.976c1.134-15.177-0.032-49.129,14.311-49.777
		c16.118-0.728,18.807,23.895,19.911,39.821c1.467,21.155-0.622,45.861-0.622,65.954c0,11.883,2.993,23.331,1.867,32.354
		c-0.779,6.244-7.65,13.448-8.711,19.911c-2.988,18.198,8.791,33.213,16.177,42.932c9.733,12.807,19.239,21.335,31.11,28.621
		c0.75-2.488-2.258-4.026-3.733-5.6c-12.92-13.777-29.257-30.273-34.221-49.776c-2.241-8.807-1.418-18.813,4.978-21.777
		c14.083-6.527,33.082,13.348,40.443,22.399c10.427,12.819,19.055,25.898,29.244,36.088c11.523,11.523,23.449,20.978,36.71,28.621
		c17.791,10.255,47.021,16.063,58.487,34.222c8.854,14.023,6.965,34.07,13.688,54.754c2.568,7.902,5.994,14.135,9.955,20.533
		c3.916,6.325,10.716,14.575,10.578,20.532c-0.124,5.326-5.974,13.056-10.578,18.044
		C421.234,626.271,409.149,633.329,391.563,635.806z"/>
	<path fill-rule="evenodd" clip-rule="evenodd" fill="#ED2636" d="M644.178,635.806c-4.978,0-9.955,0-14.933,0
		c-9.932-1.716-21.095-4.65-29.866-11.2c-7.734-5.774-20.322-18.348-20.533-27.377c-0.147-6.342,6.708-14.281,10.578-20.532
		c3.925-6.34,8.238-13.192,10.577-20.533c5.742-18.02,4.48-38.672,11.2-51.643c11.256-21.729,40.843-25.812,60.976-37.333
		c27.763-15.887,45.778-39.869,65.954-64.709c7.818-9.626,26.372-29.712,40.443-22.399c7.111,3.696,6.272,15.205,3.733,23.644
		c-5.921,19.678-19.81,33.615-31.732,46.044c-2.131,2.22-5.844,4.094-5.601,7.466c12.605-7.848,20.252-15.076,29.244-26.133
		c7.883-9.691,17.301-22.618,18.044-37.954c0.624-12.876-7.507-17.095-8.711-27.999c-1.002-9.071,1.866-20.274,1.866-31.11
		c0-20.014-2.019-44.228-0.622-64.709c1.205-17.664,3.345-43.245,20.533-41.688c9.292,0.842,10.051,14.808,11.199,24.889
		c3.569,31.327,5.747,71.824,4.978,103.908c-0.534,22.307-4.451,44.212-8.711,64.087c-4.295,20.044-9.624,40.647-16.799,55.999
		c-15.781,33.764-48.271,46.995-77.153,68.442c-21.587,16.029-35.509,36.896-45.421,63.465c-3.574,9.579-6.676,19.929-13.066,23.644
		C656.078,634.56,648.057,634.679,644.178,635.806z"/>
	<path fill-rule="evenodd" clip-rule="evenodd" fill="#07648D" d="M244.722,367.635c-5.083-3.772-2.501-12.267-2.489-19.289
		c0.03-16.541-0.622-43.504-0.622-64.087c0-11.054-1.421-22.928,7.466-23.644c10.866-0.875,18.597,15.356,18.666,26.133
		c0.086,13.253-5.909,28.062-9.333,42.932c-1.606,6.978-3.418,14.502-4.978,21.155C251.864,357.53,252.309,366.857,244.722,367.635z
		"/>
	<path fill-rule="evenodd" clip-rule="evenodd" fill="#FFFF00" d="M277.699,292.348c9.155-3.395,13.77,10.208,13.066,19.289
		c-0.821,10.601-5.684,19.999-10.578,34.221c-2.844,8.265-8.633,29.553-14.311,30.488c-4.001,0.658-8.723-5.19-9.333-8.711
		c-1.398-8.062,5.263-28.189,7.466-37.333c1.491-6.188,3.463-11.88,4.978-17.422C270.906,305.859,272.16,294.402,277.699,292.348z"
		/>
	<path fill-rule="evenodd" clip-rule="evenodd" fill="#00FF00" d="M296.365,325.947c5.708-1.876,9.624,3.505,9.956,9.333
		c0.814,14.303-12.063,30.465-18.667,42.31c-2.592,4.65-4.71,12.025-7.466,12.444c-5.194,0.79-7.055-6.805-6.222-14.933
		c1.344-13.116,10.998-33.895,16.8-43.554C291.928,329.611,294.592,326.53,296.365,325.947z"/>
	<path fill-rule="evenodd" clip-rule="evenodd" fill="#FFFFFF" d="M199.301,363.28c2.265,20.903,4.981,41.289,9.333,60.354
		c4.256,18.647,8.812,38.132,16.177,53.51c16.12,33.654,48.698,46.689,77.154,67.82c21.391,15.884,34.656,36.281,44.799,63.465
		c6.164,16.521,10.295,27.406,29.866,27.377c-59.109,0-118.22,0-177.329,0C199.301,544.964,199.301,454.12,199.301,363.28z"/>
	<text transform="matrix(1 0 0 1 429.5479 653.6709)" fill="#07648D" font-family="'ShowcardGothic-Reg'" font-size="24">MINDFULNESS</text>
</g>
</svg>
